<svg id="M2" data-name="Manzana 2" data-lotificacion xmlns="http://www.w3.org/2000/svg" width="100%" height="100%" viewBox="0 0 630 377">
  <defs>
    <style>
      .cls-1 {
        fill: rgba(223, 233, 233, 0.863);
        stroke: #000;
        stroke-width: 1px;
        fill-rule: evenodd;
      }
      .cls-1:hover{
          fill: rgba(238, 208, 40, 0.781);
        }
      .Manzanas{
        fill: red;
        display: none;
      }

    </style>
  </defs>
  
  <path data-lote id="M2-L1" class="cls-1" d="M388,206l-23,47s-6.537,10.212,6,9,34-4,34-4l-3-43Z"/>
  <path data-lote id="M2-L2" class="cls-1" d="M435,256l-30,2-3-43-15-9,12-23,22,13,10,1Z"/>
  <path data-lote id="M2-L3" class="cls-1" d="M477,252l-42,4-4-59,41,5Z"/>
  <path data-lote id="M2-L4" class="cls-1" d="M500,250l-23,2-6-50,26,3Z"/>
  <path data-lote id="M2-L5" class="cls-1" d="M538,210l-41-5,3,45,22-2s8.516,0.982,11-7S538,210,538,210Z"/>
  <path data-lote id="M2-L6" class="cls-1" d="M508,159l-11,46,41,5,5-26s3.146-6.571-5-11C529.486,168.371,508,159,508,159Z"/>
  <path data-lote id="M2-L7" class="cls-1" d="M465,201l32,4,11-46-20-10Z"/>
  <path data-lote id="M2-L8" class="cls-1" d="M440,198l25,3,23-52-23-11Z"/>
  <path data-lote id="M2-L9" class="cls-1" d="M415,150l36,19,14-31-29-14s-6.19-5.047-10,4S415,150,415,150Z"/>
  <path data-lote id="M2-L10" class="cls-1" d="M399,183l22,13,19,2,12-29-36-19Z"/>
</svg>
