<svg id="M4" data-name="Manzana 4" data-lotificacion xmlns="http://www.w3.org/2000/svg" width="100%" height="100%" viewBox="0 0 630 377">
  <defs>
    <style>
      .cls-1 {
        fill: rgba(223, 233, 233, 0.863);
        stroke: #000;
        stroke-width: 1px;
        fill-rule: evenodd;
      }
      .cls-1:hover{
          fill: rgba(238, 208, 40, 0.781);
        }
      .Manzanas{
        fill: red;
        display: none;
      }

    </style>
  </defs>
  
    <path data-lote id="M4-L1" class="cls-1" d="M57,189L8,195l6,52,47-5Z"/>
    <path data-lote id="M4-L2" class="cls-1" d="M23,301l44-7-6-52-46,5Z"/>
    <path data-lote id="M4-L3" class="cls-1" d="M23,301l8,56,42-3,13-51s-15.637,5.836-20-9C52.039,296.182,23,301,23,301Z"/>
    <path data-lote id="M4-L4" class="cls-1" d="M86,303L73,354l45-3-6-50Z"/>
    <path data-lote id="M4-L5" class="cls-1" d="M112,301l5,49,25-1-7-50Z"/>
    <path data-lote id="M4-L6" class="cls-1" d="M142,350l36-3-8-52-34,3Z"/>
    <path data-lote id="M4-L7" class="cls-1" d="M170,296l7,51,37-1-7-53Z"/>
    <path data-lote id="M4-L8" class="cls-1" d="M207,293l7,53,29-2-6-53Z"/>
    <path data-lote id="M4-L9" class="cls-1" d="M237,291l6,52,26-1-4-54Z"/>
    <path data-lote id="M4-L10" class="cls-1" d="M265,288l4,54,26-2-4-54Z"/>
    <path data-lote id="M4-L11" class="cls-1" d="M314,284l-23,2,4,53h23Z"/>
    <path data-lote id="M4-L12" class="cls-1" d="M338,281l-24,3,4,54,25-2Z"/>
    <path data-lote id="M4-L13" class="cls-1" d="M366,278l-28,3,5,55,28-3Z"/>
    <path data-lote id="M4-L14" class="cls-1" d="M408,274l-42,4,5,54,42-3Z"/>
    <path data-lote id="M4-L15" class="cls-1" d="M431,272l-23,2,5,54,23-2Z"/>
    <path data-lote id="M4-L16" class="cls-1" d="M458,268l-27,3,5,55,25-3Z"/>
    <path data-lote id="M4-L17" class="cls-1" d="M482,266l-24,3,3,55,25-3Z"/>
    <path data-lote id="M4-L18" class="cls-1" d="M506,264l-24,2,3,54,23-2Z"/>
    <path data-lote id="_M4-L19" data-name=" M4-L19" class="cls-1" d="M525,262l-20,1,3,56,22-3Z"/>
</svg>
